<svg width="173" height="72" viewBox="0 0 173 72" fill="none" xmlns="http://www.w3.org/2000/svg">
<path d="M0 42.8259V5.21359C0 3.04126 0.310333 1.64476 0.930998 1.0241C1.55166 0.341365 3.01023 0 5.30669 0H19.7372L40.0329 27.3713L40.5915 29.5126V0H51.7635C51.6393 0.124131 51.5462 0.527563 51.4842 1.2103C51.4842 1.83096 51.4842 2.54473 51.4842 3.35159C51.4842 4.09639 51.4842 4.77912 51.4842 5.39979V38.264C51.4842 40.3122 51.0497 41.5846 50.1808 42.0811C49.3118 42.5776 47.6981 42.8259 45.3396 42.8259H32.2125L11.4513 14.896L10.9858 12.5685V42.8259H0Z" fill="white"/>
<path d="M62.5514 42.8259V5.67908C62.5514 4.25155 62.6135 3.13436 62.7376 2.32749C62.9238 1.52063 63.3583 0.930997 64.041 0.558597C64.7237 0.186199 65.903 0 67.5788 0H110.684V8.00658H77.9129V16.9442H107.705V24.8576H77.9129V42.8259H62.5514Z" fill="white"/>
<path d="M120.632 0H172.023V8.09968H154.055V37.7985C154.055 39.7846 153.745 41.1191 153.124 41.8018C152.503 42.4845 151.107 42.8259 148.935 42.8259H138.694V8.09968H120.632V0Z" fill="white"/>
<path d="M7.28389 51.3979C10.3836 51.3979 12.6451 51.9668 14.0682 53.1044C15.4914 54.2421 16.2029 55.9952 16.2029 58.3637C16.2029 60.7323 15.4719 62.4667 14.0097 63.5671C12.5671 64.6674 10.3446 65.2176 7.34238 65.2176H3.71627V70.9525H0.265625V51.3979H7.28389ZM7.72254 62.2243C9.63306 62.2243 10.9295 61.8792 11.6118 61.1892C12.3137 60.4805 12.6646 59.4547 12.6646 58.1119C12.6646 56.7505 12.2259 55.79 11.3486 55.2305C10.4714 54.671 9.09695 54.3913 7.22541 54.3913H3.71627V62.2243H7.72254Z" fill="white" fill-opacity="0.65"/>
<path d="M44.9189 56.0138C43.5348 54.6337 41.8289 53.9437 39.8014 53.9437C37.7739 53.9437 36.0584 54.6337 34.6547 56.0138C33.2706 57.3939 32.5785 59.0724 32.5785 61.0493C32.5785 63.0076 33.2706 64.6768 34.6547 66.0569C36.0584 67.437 37.7739 68.127 39.8014 68.127C41.8289 68.127 43.5348 67.437 44.9189 66.0569C46.3226 64.6768 47.0244 63.0076 47.0244 61.0493C47.0244 59.0724 46.3226 57.3939 44.9189 56.0138ZM47.4631 68.2669C45.3966 70.1878 42.8427 71.1483 39.8014 71.1483C36.7602 71.1483 34.2063 70.1878 32.1398 68.2669C30.0733 66.3273 29.0401 63.9214 29.0401 61.0493C29.0401 58.1586 30.0733 55.7527 32.1398 53.8318C34.2063 51.8922 36.7602 50.9224 39.8014 50.9224C42.8427 50.9224 45.3966 51.8922 47.4631 53.8318C49.5295 55.7527 50.5628 58.1586 50.5628 61.0493C50.5628 63.9214 49.5295 66.3273 47.4631 68.2669Z" fill="white" fill-opacity="0.65"/>
<path d="M82.3451 57.7483C82.3451 60.9747 80.8732 63.0076 77.9295 63.8468L83.2809 70.9525H78.8945L74.0109 64.3783H69.4783V70.9525H66.0276V51.3979H73.6308C76.75 51.3979 78.9822 51.9015 80.3274 52.9086C81.6725 53.9157 82.3451 55.5289 82.3451 57.7483ZM73.777 61.385C75.7265 61.385 77.0522 61.0959 77.754 60.5178C78.4558 59.9396 78.8067 59.0165 78.8067 57.7483C78.8067 56.4614 78.4461 55.5849 77.7248 55.1186C77.0034 54.6337 75.7168 54.3913 73.8647 54.3913H69.4783V61.385H73.777Z" fill="white" fill-opacity="0.65"/>
<path d="M106.135 54.4192V70.9525H102.685V54.4192H96.4852V51.3979H112.335V54.4192H106.135Z" fill="white" fill-opacity="0.65"/>
<path d="M130.071 66.5045L128.024 70.9525H124.339L133.346 51.3979H137.031L146.037 70.9525H142.353L140.306 66.5045H130.071ZM138.902 63.4552L135.188 55.3984L131.475 63.4552H138.902Z" fill="white" fill-opacity="0.65"/>
<path d="M158.98 70.9525V51.3979H162.43V67.8193H171.759V70.9525H158.98Z" fill="white" fill-opacity="0.65"/>
</svg>
